<?xml version="1.0" encoding="UTF-8"?><svg id="Layer_1" xmlns="http://www.w3.org/2000/svg" xmlns:xlink="http://www.w3.org/1999/xlink" viewBox="0 0 786 360.22"><defs><style>.cls-1{fill:url(#radial-gradient);}.cls-1,.cls-2,.cls-3,.cls-4,.cls-5,.cls-6,.cls-7,.cls-8,.cls-9,.cls-10,.cls-11,.cls-12{fill-rule:evenodd;}.cls-13{fill:url(#linear-gradient-2);}.cls-2{fill:url(#radial-gradient-2);}.cls-14{mask:url(#mask-2);}.cls-15{fill:url(#linear-gradient-6);}.cls-16{mask:url(#mask-3);}.cls-3{fill:url(#radial-gradient-6);}.cls-17{mask:url(#mask-9);}.cls-18{mask:url(#mask-5);}.cls-4{fill:url(#radial-gradient-8);}.cls-5,.cls-19{fill:#ffed00;}.cls-20{mask:url(#mask-8);}.cls-21{mask:url(#mask-4);}.cls-22{fill:url(#linear-gradient-5);}.cls-6{fill:url(#radial-gradient-7);}.cls-7{fill:#1d71b8;}.cls-23{mask:url(#mask-6);}.cls-24{fill:url(#linear-gradient-7);}.cls-8{fill:url(#radial-gradient-3);}.cls-25{fill:#008d36;}.cls-9{fill:url(#radial-gradient-4);}.cls-10{fill:url(#radial-gradient-10);}.cls-26{mask:url(#mask-1);}.cls-27{mask:url(#mask);}.cls-28{fill:url(#linear-gradient-3);}.cls-11{fill:url(#radial-gradient-9);}.cls-29{fill:url(#linear-gradient);}.cls-30{mask:url(#mask-7);}.cls-12{fill:url(#radial-gradient-5);}.cls-31{fill:url(#linear-gradient-4);}.cls-32{fill:#1d1d1b;}</style><linearGradient id="linear-gradient" x1="392.54" y1="34.95" x2="392.54" y2="204.51" gradientUnits="userSpaceOnUse"><stop offset="0" stop-color="#1d71b8"/><stop offset="1" stop-color="#00457f"/></linearGradient><linearGradient id="linear-gradient-2" x1="81.77" y1="78.95" x2="81.77" y2="147.85" gradientUnits="userSpaceOnUse"><stop offset="0" stop-color="#fff"/><stop offset="1" stop-color="#ebebeb"/></linearGradient><linearGradient id="linear-gradient-3" x1="192.68" y1="78.94" x2="192.68" y2="147.85" xlink:href="#linear-gradient-2"/><linearGradient id="linear-gradient-4" x1="304.42" x2="304.42" xlink:href="#linear-gradient-2"/><linearGradient id="linear-gradient-5" x1="401.07" y1="78.96" x2="401.07" y2="147.86" xlink:href="#linear-gradient-2"/><linearGradient id="linear-gradient-6" x1="483.03" y1="78.95" x2="483.03" y2="147.85" xlink:href="#linear-gradient-2"/><linearGradient id="linear-gradient-7" x1="722.15" y1="78.95" x2="722.15" y2="147.85" xlink:href="#linear-gradient-2"/><radialGradient id="radial-gradient" cx="1932.4" cy="-1713.13" fx="1932.4" fy="-1713.13" r="67.73" gradientTransform="translate(2281.08 2078.81) rotate(-90)" gradientUnits="userSpaceOnUse"><stop offset=".58" stop-color="#1d1d1b"/><stop offset="1" stop-color="#fff"/></radialGradient><mask id="mask" x="569.02" y="120.12" width="113.76" height="60.04" maskUnits="userSpaceOnUse"><path class="cls-1" d="M618.1,123.01c21.33,7.15,69.45,17.61,64.3,32.87-5.15,15.24-61.62,29.55-82.96,22.39-21.33-7.16-34.45-25.32-29.3-40.57,5.16-15.24,26.62-21.83,47.96-14.68Z"/></mask><radialGradient id="radial-gradient-2" cx="684.35" cy="79.17" fx="684.35" fy="79.17" r="61.78" gradientTransform="translate(-1.01 .47)" xlink:href="#radial-gradient"/><mask id="mask-1" x="654.25" y="81.64" width="61.26" height="79.21" maskUnits="userSpaceOnUse"><path class="cls-2" d="M712.61,130.54c-7.18,21.25-25.41,34.32-40.72,29.19-15.32-5.13-21.91-26.53-14.74-47.79,7.18-21.25,25.41-34.33,40.72-29.19,15.32,5.13,21.9,26.53,14.74,47.79Z"/></mask><radialGradient id="radial-gradient-3" cx="3179.43" cy="891.22" fx="3179.43" fy="891.22" r="67.73" gradientTransform="translate(3228.37 -1998.28) rotate(124.69) skewX(.19)" xlink:href="#radial-gradient"/><mask id="mask-2" x="590.48" y="35.26" width="94.36" height="85.37" maskUnits="userSpaceOnUse"><path class="cls-8" d="M627.6,101.18c-13.5-17.96-47.14-53.79-34.21-63.44,12.94-9.63,67.57,10.57,81.04,28.51,13.48,17.97,13.93,40.33,1.01,49.97-12.94,9.66-34.34,2.91-47.84-15.04Z"/></mask><radialGradient id="radial-gradient-4" cx="3288.94" cy="-1166.93" fx="3288.94" fy="-1166.93" r="61.78" gradientTransform="translate(3922.22 1004.55) rotate(-145.49) skewX(-.19)" xlink:href="#radial-gradient"/><mask id="mask-3" x="534.57" y="31.14" width="74.09" height="67.42" maskUnits="userSpaceOnUse"><path class="cls-9" d="M554.08,41.51c18.03-13.44,40.49-13.87,50.16-1.01,9.68,12.9,2.92,34.25-15.11,47.68-18.01,13.42-40.47,13.87-50.15,.99-9.67-12.89-2.9-34.23,15.11-47.66Z"/></mask><radialGradient id="radial-gradient-5" cx="3507.51" cy="-885.96" fx="3507.51" fy="-885.96" r="67.72" gradientTransform="translate(4254.92 417.72) rotate(-161.97) skewX(-.12)" xlink:href="#radial-gradient"/><mask id="mask-4" x="620.76" y="61.52" width="69.59" height="106.45" maskUnits="userSpaceOnUse"><path class="cls-12" d="M631.11,113.62c13.44-18,38.34-60.32,51.3-50.7,12.96,9.6,9.06,67.52-4.38,85.51-13.45,17.99-34.84,24.79-47.79,15.15-12.97-9.6-12.57-31.98,.87-49.96Z"/></mask><radialGradient id="radial-gradient-6" cx="1511.97" cy="-1495.21" fx="1511.97" fy="-1495.21" r="61.78" gradientTransform="translate(1563.15 1934.54) rotate(-71.86) skewX(.12)" xlink:href="#radial-gradient"/><mask id="mask-5" x="613.08" y="16.12" width="74.13" height="67.38" maskUnits="userSpaceOnUse"><path class="cls-3" d="M667.62,26.44c18.05,13.39,24.86,34.73,15.21,47.61-9.64,12.93-32.12,12.53-50.17-.87-18.05-13.4-24.84-34.73-15.2-47.63,9.65-12.91,32.11-12.52,50.16,.89Z"/></mask><radialGradient id="radial-gradient-7" cx="1455.7" cy="1106.7" fx="1455.7" fy="1106.7" r="67.73" gradientTransform="translate(683 -1776.2) rotate(54.02) skewX(-.19)" xlink:href="#radial-gradient"/><mask id="mask-6" x="541.97" y="42.49" width="103.02" height="74.86" maskUnits="userSpaceOnUse"><path class="cls-6" d="M613.81,100.67c-21.49,6.66-66.62,26.31-71.42,10.96-4.8-15.38,32.53-59.95,54.01-66.61,21.51-6.67,42.8,.38,47.61,15.78,4.8,15.35-8.72,33.22-30.21,39.88Z"/></mask><radialGradient id="radial-gradient-8" cx="3504.7" cy="555.9" fx="3504.7" fy="555.9" r="61.78" gradientTransform="translate(3754.81 -1425.66) rotate(144.21) skewX(.19)" xlink:href="#radial-gradient"/><mask id="mask-7" x="530.29" y="101.39" width="60.9" height="79.48" maskUnits="userSpaceOnUse"><path class="cls-4" d="M532.81,149.78c-6.69-21.42,.38-42.65,15.8-47.43,15.44-4.79,33.35,8.69,40.05,30.1,6.69,21.42-.4,42.66-15.82,47.45-15.42,4.78-33.36-8.71-40.04-30.12Z"/></mask><radialGradient id="radial-gradient-9" cx="680.46" cy="-495.2" fx="680.46" fy="-495.2" r="67.74" gradientTransform="translate(75.41 754.62) rotate(-18.22) skewX(.12)" xlink:href="#radial-gradient"/><mask id="mask-8" x="551.15" y="72.48" width="59.19" height="111.93" maskUnits="userSpaceOnUse"><path class="cls-11" d="M609.67,113.26c-.12,22.43,5,71.24-11.14,71.14-16.15-.07-47.47-49.02-47.37-71.46,.14-22.44,13.32-40.53,29.48-40.47,16.16,.12,29.16,18.36,29.04,40.79Z"/></mask><radialGradient id="radial-gradient-10" cx="1903.07" cy="1332.58" fx="1903.07" fy="1332.58" r="61.78" gradientTransform="translate(1341.06 -2057.62) rotate(71.66) skewX(-.12)" xlink:href="#radial-gradient"/><mask id="mask-9" x="591.55" y="146.76" width="81.5" height="58.28" maskUnits="userSpaceOnUse"><path class="cls-10" d="M632.16,205.04c-22.52-.11-40.69-13.25-40.61-29.36,.09-16.1,18.41-29.07,40.92-28.92,22.5,.12,40.68,13.28,40.59,29.38-.09,16.08-18.4,29.03-40.89,28.9Z"/></mask></defs><g><path class="cls-29" d="M57.79,0H727.3c32.4,0,58.7,26.3,58.7,58.7V189.8c0,32.4-26.3,58.7-58.7,58.7H57.79C25.39,248.5-.91,222.2-.91,189.8V58.7C-.91,26.3,25.39,0,57.79,0Z"/><g><path class="cls-19" d="M242.89,196.8h5.35v9.29c1.6-1.08,3.38-1.62,5.35-1.62,6.03,0,9.04,3.39,9.04,10.17,0,7.35-3.45,11.02-10.35,11.02-2.91,0-6.04-.29-9.39-.87v-28Zm5.35,23.96c1.22,.39,2.64,.59,4.26,.59,3.23,0,4.84-2.28,4.84-6.84,0-3.73-1.39-5.59-4.18-5.59-1.8,0-3.45,.36-4.93,1.09v10.76Z"/><path class="cls-19" d="M277.42,225.67v-21.2h4.14l.67,2.71c1.86-1.8,3.82-2.71,5.89-2.71v4.32c-1.99,0-3.77,.83-5.35,2.48v14.39h-5.35Z"/><path class="cls-19" d="M300.88,219.07c0-4.21,3.07-6.32,9.2-6.32,1.44,0,2.88,.13,4.32,.4v-1.59c0-1.9-1.37-2.85-4.1-2.85-2.31,0-4.88,.34-7.71,1.01v-4.24c2.83-.67,5.4-1.01,7.71-1.01,6.3,0,9.45,2.33,9.45,6.98v14.21h-3.11l-1.9-1.9c-1.84,1.26-3.88,1.9-6.1,1.9-5.18,0-7.77-2.2-7.77-6.6Zm9.2-2.68c-2.57,0-3.86,.88-3.86,2.62,0,1.88,1.08,2.83,3.23,2.83,1.78,0,3.42-.55,4.95-1.66v-3.39c-1.35-.27-2.79-.4-4.32-.4Z"/><path class="cls-19" d="M335.55,224.66v-4.44c2.35,.94,5.07,1.41,8.15,1.41,2.3,0,3.45-.74,3.45-2.22s-.77-2.12-2.32-2.12h-3.84c-4.31,0-6.46-2.12-6.46-6.36s3.14-6.66,9.43-6.66c2.66,0,5.17,.4,7.53,1.21v4.44c-2.35-.94-4.91-1.41-7.67-1.41-2.89,0-4.34,.74-4.34,2.22s.84,2.12,2.52,2.12h3.43c4.71,0,7.06,2.12,7.06,6.36s-3,6.66-9,6.66c-2.95,0-5.6-.4-7.95-1.21Z"/><path class="cls-19" d="M372.34,196.8v4.24h-5.35v-4.24h5.35Zm0,7.67v21.2h-5.35v-21.2h5.35Z"/><path class="cls-19" d="M393.48,196.8v28.87h-5.35v-28.87h5.35Z"/><path class="cls-19" d="M414.12,220.72v4.95h-5.35v-4.95h5.35Z"/><path class="cls-19" d="M445.05,225.06c-1.75,.4-3.57,.61-5.45,.61-7.54,0-11.3-3.67-11.3-11,0-6.8,3.77-10.19,11.3-10.19,1.88,0,3.7,.2,5.45,.61v4.24c-1.75-.4-3.43-.61-5.05-.61-4.24,0-6.36,1.99-6.36,5.96,0,4.51,2.12,6.76,6.36,6.76,1.61,0,3.3-.2,5.05-.61v4.24Z"/><path class="cls-19" d="M458.33,215.07c0-7.11,3.5-10.66,10.5-10.66s10.5,3.55,10.5,10.66-3.5,10.64-10.5,10.64-10.47-3.54-10.5-10.64Zm10.5,6.56c3.43,0,5.15-2.21,5.15-6.64s-1.72-6.48-5.15-6.48-5.15,2.16-5.15,6.48,1.72,6.64,5.15,6.64Z"/><path class="cls-19" d="M494.1,225.67v-21.2h4.14l.63,3.07c1.9-2.04,4.18-3.07,6.84-3.07s4.49,.97,5.47,2.91c2.17-1.94,4.43-2.91,6.8-2.91,4.87,0,7.31,2.69,7.31,8.05v13.14h-5.35v-13.34c0-2.35-1.06-3.53-3.19-3.53-1.59,0-3.12,.71-4.58,2.14v14.74h-5.35v-13.28c0-2.39-.98-3.59-2.95-3.59-1.56,0-3.04,.71-4.42,2.14v14.74h-5.35Z"/></g><rect class="cls-25" x="34.6" y="193.92" width="177.71" height="35.16"/><polygon class="cls-5" points="212.31 198.82 101.57 211.5 212.31 224.2 212.31 198.82"/><path class="cls-7" d="M212.31,199.15c-5.35,1.55-9.25,6.49-9.25,12.35s3.9,10.8,9.25,12.36v-24.71Z"/><g><path class="cls-13" d="M61.45,132.01c0,4.32,2.16,7.55,6.45,9.7,4.3,2.15,9.76,3.27,16.35,3.32,6.6,.08,13.06-.2,19.38-.83,6.32-.63,12.3-1.35,17.92-2.18,5.62-.85,8.86-1.26,9.68-1.26,.55,12.08-1.84,20.62-7.18,25.61-5.35,5.01-16.08,7.51-32.18,7.51-22.23,0-38.54-4.53-48.95-13.54-10.42-9.03-15.62-24.66-15.62-46.88,0-11.09,1.42-20.51,4.26-28.21,2.86-7.71,7.01-13.58,12.5-17.59,5.48-4.03,11.6-6.88,18.33-8.56,6.75-1.68,14.62-2.49,23.64-2.49,17.21,0,29.9,3.64,38.02,10.94,8.11,7.28,12.19,18.92,12.19,34.88,0,6.11-1.19,11.02-3.55,14.68-2.36,3.69-5.44,6.16-9.26,7.4-3.83,1.25-8.4,2.15-13.76,2.71-5.34,.56-10.62,.73-15.81,.52-5.22-.2-10.84,.04-16.88,.73-6.05,.7-11.24,1.89-15.53,3.54Zm-1.03-21.87c2.36-1.66,6.21-2.77,11.55-3.32,5.34-.56,10.35-.88,15-.94,4.65-.06,8.78-1.04,12.4-2.91,3.61-1.88,5.35-4.83,5.21-8.86,0-3.6-2.85-6.59-8.54-8.96-7.92-3.33-15.62-3.6-23.11-.83-10.43,3.75-14.59,12.36-12.51,25.82Z"/><path class="cls-28" d="M245.38,96.19v75.82c-4.87,.27-9.04,.24-12.49-.1-3.49-.35-6.79-1.15-9.91-2.39-3.12-1.26-5.41-3.29-6.87-6.15-1.46-2.83-2.11-6.42-1.97-10.73v-55.8c-2.1-10.16-11.54-14.17-28.33-12.08-8.75,1.09-13.82,1.92-15.2,2.48,.41,2.37,.62,5.13,.62,8.33v57.07c.14,4.3-.56,7.89-2.08,10.73-1.54,2.86-3.82,4.89-6.87,6.15-3.06,1.25-6.32,2.04-9.79,2.39-3.48,.34-7.66,.38-12.51,.1V70.57c0-9.03,14.51-13.89,43.53-14.58,41.11-1.11,61.74,12.29,61.87,40.2Z"/><path class="cls-31" d="M284.12,132.01c0,4.32,2.15,7.55,6.45,9.7,4.31,2.15,9.75,3.27,16.35,3.32,6.6,.08,13.06-.2,19.39-.83,6.3-.63,12.28-1.35,17.91-2.18,5.63-.85,8.85-1.26,9.69-1.26,.56,12.08-1.86,20.62-7.19,25.61-5.36,5.01-16.07,7.51-32.18,7.51-22.23,0-38.55-4.53-48.95-13.54-10.42-9.03-15.62-24.66-15.62-46.88,0-11.09,1.42-20.51,4.27-28.21,2.84-7.71,7.01-13.58,12.51-17.59,5.47-4.03,11.58-6.88,18.32-8.56,6.73-1.68,14.62-2.49,23.65-2.49,17.22,0,29.88,3.64,38.01,10.94,8.13,7.28,12.19,18.92,12.19,34.88,0,6.11-1.19,11.02-3.54,14.68-2.37,3.69-5.46,6.16-9.28,7.4-3.82,1.25-8.4,2.15-13.73,2.71-5.36,.56-10.64,.73-15.85,.52-5.21-.2-10.82,.04-16.87,.73-6.04,.7-11.21,1.89-15.51,3.54Zm-1.04-21.87c2.36-1.66,6.21-2.77,11.56-3.32,5.34-.56,10.33-.88,14.99-.94,4.65-.06,8.79-1.04,12.39-2.91,3.62-1.88,5.35-4.83,5.22-8.86,0-3.6-2.85-6.59-8.55-8.96-7.91-3.33-15.62-3.6-23.12-.83-10.41,3.75-14.59,12.36-12.5,25.82Z"/><path class="cls-22" d="M439.08,56.41c-.13,.27-.11,1.73,.11,4.37,.19,2.63,.15,5.17-.11,7.6-.28,2.42-.83,5.03-1.67,7.81-.83,2.77-2.53,4.99-5.08,6.65-2.59,1.67-5.88,2.5-9.91,2.5-5.83,0-10.33,.21-13.52,.62-3.21,.43-6.06,1.46-8.54,3.13-2.52,1.66-4.18,4.02-5.01,7.08-.83,3.06-1.25,7.22-1.25,12.5v66.66c-2.5-1.81-5.8-3.23-9.89-4.29-4.1-1.02-7.58-1.82-10.42-2.4-2.84-.54-5.38-2.18-7.6-4.88-2.23-2.71-3.35-6.63-3.35-11.77v-55.82c0-.83,.03-1.99,.11-3.44,.07-1.46,.31-3.47,.74-6.04,.41-2.55,1.09-5.14,2.07-7.7,.97-2.57,2.43-5.25,4.38-8.01,1.94-2.79,4.3-5.23,7.09-7.3,2.77-2.09,6.35-3.83,10.72-5.22,4.37-1.39,9.27-2.07,14.68-2.07h36.45Z"/><path class="cls-15" d="M525.52,85.78c-4.31-.14-9.89-.52-16.76-1.15-6.87-.64-11.87-.99-14.99-1.05-3.13-.06-8.24,.12-15.32,.52-1.81,.14-3.4,.43-4.79,.84-5.27,1.52-7.63,3.96-7.08,7.3,.42,2.07,1.81,3.25,4.18,3.54,7.08,1.1,13.57,2.46,19.47,4.06,5.9,1.61,10.86,3.27,14.89,5,4.03,1.73,7.65,3.65,10.93,5.74,3.26,2.08,5.85,4.13,7.71,6.14,1.87,2.01,3.54,4.03,5.01,6.04,1.46,2.02,2.38,3.92,2.81,5.72,.42,1.81,.83,3.51,1.25,5.1,.42,1.61,.53,2.93,.31,3.97-.21,1.03-.25,1.84-.1,2.4v.4c0,11.82-4.93,20.24-14.79,25.33-9.86,5.05-25.2,7.59-46.03,7.59-5.55,0-10.39-.6-14.49-1.78-4.1-1.17-7.29-2.56-9.58-4.15-2.29-1.6-4.1-3.54-5.41-5.83-1.34-2.3-2.2-4.38-2.62-6.26-.41-1.87-.59-3.82-.51-5.83,.06-2.01,.16-3.41,.32-4.16,.13-.77,.28-1.29,.42-1.55,4.29,.12,9.89,.51,16.76,1.13,6.87,.63,11.87,.97,15.01,1.05,3.12,.06,8.22-.11,15.3-.52,4.31-.42,7.72-1.19,10.21-2.29,2.5-1.13,3.92-2.3,4.27-3.57,.34-1.23,.15-2.49-.63-3.74-.75-1.25-2.06-2.39-3.85-3.43-1.81-1.05-3.89-1.86-6.25-2.4-3.61-1.11-8.15-2.23-13.64-3.34-5.49-1.11-10.03-2.01-13.64-2.69-3.62-.7-7.5-1.87-11.67-3.55-4.18-1.66-7.52-3.65-10.11-5.93-2.57-2.29-4.72-5.51-6.46-9.68-1.73-4.18-2.67-9.1-2.82-14.79v-.83c0-11.8,4.94-20.24,14.79-25.3,9.87-5.08,25.21-7.6,46.04-7.6,5.55,0,10.38,.58,14.47,1.77,4.1,1.19,7.31,2.56,9.58,4.16,2.29,1.59,4.09,3.54,5.42,5.83,1.32,2.3,2.19,4.38,2.6,6.25,.43,1.87,.58,3.82,.53,5.83-.09,2.02-.18,3.41-.32,4.18-.15,.76-.28,1.28-.42,1.56Z"/><path class="cls-24" d="M737.77,152.63c.28,8.34-2.33,13.79-7.81,16.35-5.49,2.57-13.3,3.58-23.44,3.02V9.54c2.51,1.81,5.8,2.89,9.9,3.23,4.09,.35,7.58,.53,10.41,.53s5.39,1.49,7.61,4.46c2.21,2.99,3.33,7.88,3.33,14.68v120.18Z"/></g><g><g><g class="cls-27"><path class="cls-5" d="M674.48,159.05c-2.24-6.23-5.94-11.49-9.91-15.69-2.19,.52-4.36,.96-6.33,1.36-18.96,3.8-41.39,3.58-60.83,2.08,2.33,6.74,5.58,12.58,9.12,18.14,23.48,.37,49.17,.26,67.93-5.9Z"/></g><g class="cls-26"><path class="cls-5" d="M685.14,99.35c-.72-.76-1.56-2.88-2.9-2.08-1.3,6.99-3.29,13.22-4.97,19.8,1.9,4.69,6.57,8.16,5.8,14.45-.78,6.49-9.93,9.79-18.5,11.84,3.96,4.2,7.66,9.46,9.91,15.69,8.15-2.66,14.99-6.46,19.77-11.87,13.75-15.61,.65-37.53-9.12-47.83Z"/></g></g><g><g class="cls-14"><path class="cls-5" d="M601.71,39.6c-1.71,6.39-1.65,12.82-.79,18.51,2.11,.82,4.15,1.67,5.99,2.48,17.78,7.58,36.1,20.47,51.27,32.68,1.91-6.86,2.57-13.5,2.83-20.09-19.12-13.6-40.33-28.05-59.3-33.59Z"/></g><g class="cls-16"><path class="cls-5" d="M558.93,82.72c.15,1.02-.36,3.24,1.21,3.34,5.01-5,10.23-9.02,15.36-13.5,1.1-4.9-.78-10.41,3.44-15.16,4.34-4.9,13.75-2.43,21.98,.71,3.65-7.69-.91-12.12,.79-18.51-8.22-2.41-16.03-3.16-23.04-1.41-20.22,5.04-21.91,30.52-19.74,44.54Z"/></g></g><g><g class="cls-21"><path class="cls-5" d="M682.99,71.38c-6.64,.2-12.79,2.07-18.05,4.52-.18,2.25-.42,4.45-.65,6.43-2.27,19.12-9.43,40.31-16.88,58.27,7.13-.14,13.71-1.41,20.12-3.01,7.62-22.14,15.52-46.51,15.45-66.21Z"/></g><g class="cls-18"><path class="cls-5" d="M629.34,42.79c-.94,.43-3.22,.57-2.88,2.09,6.25,3.38,11.6,7.21,17.36,10.84,5.04-.33,9.8-3.69,15.57-1.01,5.93,2.76,6.25,12.44,5.54,21.2,8.47,1.27,11.41-4.32,18.05-4.52-.01-8.53-1.5-16.2-5.19-22.41-10.61-17.9-35.59-12.26-48.46-6.19Z"/></g></g><g><g class="cls-23"><path class="cls-5" d="M546.91,104.41c5.49,3.73,11.57,5.83,17.27,6.95,1.47-1.73,2.96-3.36,4.31-4.83,13.13-14.15,31.43-27.07,48.05-37.22-5.85-4.08-11.91-6.91-18.05-9.37-19.25,13.42-40.03,28.51-51.58,44.47Z"/></g><g class="cls-30"><path class="cls-5" d="M573.43,159.01c1,.2,2.94,1.42,3.55-.03-3.05-6.38-5.12-12.62-7.63-18.91-4.26-2.7-10.11-2.78-13.18-8.31-3.18-5.72,2.29-13.73,8.03-20.39-6.09-6.02-11.78-3.22-17.27-6.95-5.03,6.91-8.34,14.01-9.04,21.18-1.97,20.67,21.57,30.77,35.56,33.42Z"/></g></g><g><g class="cls-20"><path class="cls-5" d="M593.02,177.92c5.22-4.07,9.08-9.22,11.85-14.29-1.19-1.91-2.29-3.82-3.3-5.55-9.57-16.75-16.38-38.04-21.06-56.91-5.68,4.33-10.23,9.22-14.44,14.32,7.03,22.35,15.18,46.63,26.95,62.43Z"/></g><g class="cls-17"><path class="cls-5" d="M653.24,169.28c.5-.92,2.27-2.38,1.06-3.38-7.02,.94-13.62,1.01-20.43,1.5-3.84,3.24-5.7,8.77-11.91,10-6.43,1.3-12.45-6.32-17.09-13.78-7.57,3.95-6.63,10.23-11.85,14.29,5.09,6.86,10.86,12.18,17.51,15,19.2,8.13,35.95-11.17,42.71-23.65Z"/></g></g></g></g><g><path class="cls-32" d="M41.14,308.47c15.42,0,23.14,7.94,23.14,23.83,0,2.12-.15,4.23-.44,6.35H30.1c0,7.23,5.26,10.84,15.78,10.84,5.13,0,10.26-.49,15.39-1.46v10.25c-4.49,.98-9.94,1.46-16.36,1.46-18.42,0-27.64-8.74-27.64-26.22s7.95-25.05,23.86-25.05Zm-11.04,21.19h21.68v-.39c0-7.1-3.55-10.64-10.65-10.64s-10.45,3.68-11.04,11.04Z"/><path class="cls-32" d="M86.73,289.91v69.82h-12.83v-69.82h12.83Z"/><path class="cls-32" d="M120.27,308.47c15.42,0,23.14,7.94,23.14,23.83,0,2.12-.15,4.23-.44,6.35h-33.74c0,7.23,5.26,10.84,15.78,10.84,5.13,0,10.26-.49,15.39-1.46v10.25c-4.49,.98-9.94,1.46-16.36,1.46-18.42,0-27.64-8.74-27.64-26.22s7.95-25.05,23.86-25.05Zm-11.04,21.19h21.68v-.39c0-7.1-3.55-10.64-10.65-10.64s-10.45,3.68-11.04,11.04Z"/><path class="cls-32" d="M152.32,300.17h9.49l1.94,8.3h12.78v10.25h-11.37v23.58c0,4.79,2.05,7.18,6.15,7.18h5.23v10.25h-11.42c-8.52,0-12.78-4.61-12.78-13.82v-45.75Z"/><path class="cls-32" d="M185.23,359.74v-51.27h9.92l1.6,6.54c4.45-4.36,9.16-6.54,14.13-6.54v10.45c-4.78,0-9.05,2-12.83,6.01v34.81h-12.83Z"/><path class="cls-32" d="M230.97,289.91v10.25h-12.83v-10.25h12.83Zm0,18.55v51.27h-12.83v-51.27h12.83Z"/><path class="cls-32" d="M280.58,358.27c-4.19,.98-8.55,1.46-13.07,1.46-18.07,0-27.1-8.87-27.1-26.61,0-16.44,9.03-24.66,27.1-24.66,4.52,0,8.87,.49,13.07,1.46v10.25c-4.19-.98-8.23-1.46-12.1-1.46-10.16,0-15.25,4.8-15.25,14.4,0,10.91,5.08,16.36,15.25,16.36,3.87,0,7.91-.49,12.1-1.46v10.25Z"/><path class="cls-32" d="M301.87,289.91v10.25h-12.83v-10.25h12.83Zm0,18.55v51.27h-12.83v-51.27h12.83Z"/><path class="cls-32" d="M358.99,356.66c-7.78,2.05-15.38,3.08-22.8,3.08-16.42,0-24.64-8.89-24.64-26.66,0-16.41,8.03-24.61,24.1-24.61,3.42,0,6.92,.81,10.5,2.44v-21h12.83v66.75Zm-12.83-34.81c-2.65-1.76-5.97-2.64-9.97-2.64-7.97,0-11.96,4.51-11.96,13.53,0,10.71,4.15,16.06,12.44,16.06,3.36,0,6.52-.47,9.49-1.42v-25.54Z"/><path class="cls-32" d="M368.67,343.77c0-10.19,7.36-15.28,22.07-15.28,3.45,0,6.9,.33,10.36,.98v-3.86c0-4.59-3.28-6.88-9.83-6.88-5.55,0-11.71,.81-18.49,2.44v-10.25c6.78-1.63,12.94-2.44,18.49-2.44,15.1,0,22.65,5.63,22.65,16.89v34.38h-7.45l-4.55-4.59c-4.42,3.06-9.29,4.59-14.62,4.59-12.42,0-18.63-5.32-18.63-15.97Zm22.07-6.49c-6.16,0-9.24,2.12-9.24,6.35,0,4.56,2.58,6.84,7.74,6.84,4.26,0,8.21-1.33,11.86-4v-8.2c-3.23-.65-6.68-.98-10.36-.98Z"/><path class="cls-32" d="M471.04,356.66c-7.78,2.05-15.38,3.08-22.8,3.08-16.42,0-24.64-8.89-24.64-26.66,0-16.41,8.04-24.61,24.1-24.61,3.42,0,6.92,.81,10.5,2.44v-21h12.83v66.75Zm-12.83-34.81c-2.65-1.76-5.97-2.64-9.97-2.64-7.97,0-11.96,4.51-11.96,13.53,0,10.71,4.15,16.06,12.44,16.06,3.36,0,6.52-.47,9.49-1.42v-25.54Z"/><path class="cls-32" d="M504.58,308.47c15.42,0,23.14,7.94,23.14,23.83,0,2.12-.15,4.23-.44,6.35h-33.74c0,7.23,5.26,10.84,15.78,10.84,5.13,0,10.26-.49,15.39-1.46v10.25c-4.48,.98-9.94,1.46-16.36,1.46-18.42,0-27.64-8.74-27.64-26.22s7.95-25.05,23.86-25.05Zm-11.04,21.19h21.68v-.39c0-7.1-3.55-10.64-10.65-10.64s-10.45,3.68-11.04,11.04Z"/><path class="cls-32" d="M559.13,357.29v-10.74c5.65,2.28,12.16,3.42,19.55,3.42,5.52,0,8.28-1.79,8.28-5.37s-1.86-5.13-5.57-5.13h-9.2c-10.33,0-15.49-5.13-15.49-15.38s7.53-16.11,22.6-16.11c6.39,0,12.41,.98,18.05,2.93v10.74c-5.65-2.28-11.78-3.42-18.39-3.42-6.94,0-10.41,1.79-10.41,5.37s2.02,5.13,6.05,5.13h8.23c11.29,0,16.94,5.13,16.94,15.38s-7.2,16.11-21.59,16.11c-7.07,0-13.42-.98-19.07-2.93Z"/><path class="cls-32" d="M606.31,334.1c0-17.19,8.39-25.78,25.17-25.78s25.17,8.59,25.17,25.78-8.39,25.73-25.17,25.73-25.1-8.58-25.17-25.73Zm25.17,15.87c8.23,0,12.34-5.35,12.34-16.06s-4.11-15.67-12.34-15.67-12.34,5.22-12.34,15.67,4.12,16.06,12.34,16.06Z"/><path class="cls-32" d="M679.16,289.91v69.82h-12.83v-69.82h12.83Z"/><path class="cls-32" d="M688.84,343.77c0-10.19,7.36-15.28,22.07-15.28,3.45,0,6.91,.33,10.36,.98v-3.86c0-4.59-3.28-6.88-9.83-6.88-5.55,0-11.71,.81-18.49,2.44v-10.25c6.78-1.63,12.94-2.44,18.49-2.44,15.1,0,22.65,5.63,22.65,16.89v34.38h-7.45l-4.55-4.59c-4.42,3.06-9.29,4.59-14.62,4.59-12.42,0-18.63-5.32-18.63-15.97Zm22.07-6.49c-6.16,0-9.25,2.12-9.25,6.35,0,4.56,2.58,6.84,7.74,6.84,4.26,0,8.21-1.33,11.86-4v-8.2c-3.23-.65-6.68-.98-10.36-.98Z"/><path class="cls-32" d="M746.19,359.74v-51.27h9.92l1.6,6.54c4.45-4.36,9.16-6.54,14.13-6.54v10.45c-4.78,0-9.05,2-12.83,6.01v34.81h-12.83Z"/></g></svg>